<svg xmlns="http://www.w3.org/2000/svg" width="1280" height="720" viewBox="0 0 1280 720" role="img" aria-label="mail_summariser architecture diagram">
  <defs>
    <style>
      .bg{fill:#f5f8f7}
      .title{font:700 28px 'Helvetica Neue',Arial,sans-serif;fill:#0f3d34}
      .node{fill:#ffffff;stroke:#1f6f5f;stroke-width:2;rx:14;ry:14}
      .node2{fill:#eef7f4;stroke:#1f6f5f;stroke-width:2;rx:14;ry:14}
      .txt{font:600 16px 'Helvetica Neue',Arial,sans-serif;fill:#0b2f29}
      .sub{font:500 13px 'Helvetica Neue',Arial,sans-serif;fill:#27564d}
      .edge{stroke:#2d6f62;stroke-width:2.4;fill:none;marker-end:url(#arrow)}
    </style>
    <marker id="arrow" markerWidth="10" markerHeight="10" refX="9" refY="3" orient="auto">
      <path d="M0,0 L10,3 L0,6 z" fill="#2d6f62"/>
    </marker>
  </defs>
  <rect class="bg" x="0" y="0" width="1280" height="720"/>
  <text class="title" x="40" y="52">mail_summariser - Runtime Architecture</text>

  <rect class="node" x="60" y="120" width="220" height="96"/>
  <text class="txt" x="84" y="158">Browser Client</text>
  <text class="sub" x="84" y="182">webapp/</text>

  <rect class="node" x="60" y="260" width="220" height="96"/>
  <text class="txt" x="84" y="298">macOS Client</text>
  <text class="sub" x="84" y="322">macos-app/</text>

  <rect class="node2" x="360" y="170" width="300" height="170"/>
  <text class="txt" x="390" y="208">FastAPI Backend</text>
  <text class="sub" x="390" y="232">backend/app.py</text>
  <text class="sub" x="390" y="254">domain routes + service</text>
  <text class="sub" x="390" y="274">orchestration</text>

  <rect class="node" x="740" y="80" width="230" height="92"/>
  <text class="txt" x="766" y="116">SQLite</text>
  <text class="sub" x="766" y="140">backend/data/*.sqlite3</text>

  <rect class="node" x="740" y="210" width="230" height="92"/>
  <text class="txt" x="766" y="246">Mail Service</text>
  <text class="sub" x="766" y="270">dummy + IMAP + SMTP</text>

  <rect class="node" x="740" y="340" width="230" height="92"/>
  <text class="txt" x="766" y="376">Summary Service</text>
  <text class="sub" x="766" y="400">provider + fallback</text>

  <rect class="node" x="1040" y="170" width="190" height="88"/>
  <text class="txt" x="1066" y="204">IMAP/SMTP</text>
  <text class="sub" x="1066" y="226">real or fake mail</text>

  <rect class="node" x="1040" y="300" width="190" height="128"/>
  <text class="txt" x="1066" y="334">LLM Providers</text>
  <text class="sub" x="1066" y="358">Ollama</text>
  <text class="sub" x="1066" y="380">OpenAI</text>
  <text class="sub" x="1066" y="402">Anthropic</text>

  <path class="edge" d="M280 168 L360 210"/>
  <path class="edge" d="M280 308 L360 280"/>
  <path class="edge" d="M660 214 L700 214 L700 126 L740 126"/>
  <path class="edge" d="M660 250 L740 256"/>
  <path class="edge" d="M660 290 L700 290 L700 386 L740 386"/>
  <path class="edge" d="M970 256 L1006 256 L1006 214 L1040 214"/>
  <path class="edge" d="M970 386 L1006 386 L1006 364 L1040 364"/>
</svg>
